<svg width="20" height="20" viewBox="0 0 20 20" fill="none" xmlns="http://www.w3.org/2000/svg">
<path d="M10.3125 16.8751H3.72655C3.64726 16.8761 3.56857 16.8613 3.49511 16.8314C3.42165 16.8016 3.35492 16.7573 3.29884 16.7012C3.24277 16.6451 3.1985 16.5784 3.16864 16.5049C3.13878 16.4315 3.12394 16.3528 3.12499 16.2735V9.68756C3.12499 7.78132 3.88224 5.95315 5.23016 4.60523C6.57808 3.25731 8.40625 2.50006 10.3125 2.50006V2.50006C11.2564 2.50006 12.191 2.68597 13.063 3.04718C13.9351 3.40838 14.7274 3.93781 15.3948 4.60523C16.0622 5.27265 16.5917 6.065 16.9529 6.93702C17.3141 7.80905 17.5 8.74369 17.5 9.68756V9.68756C17.5 10.6314 17.3141 11.5661 16.9529 12.4381C16.5917 13.3101 16.0622 14.1025 15.3948 14.7699C14.7274 15.4373 13.9351 15.9667 13.063 16.3279C12.191 16.6892 11.2564 16.8751 10.3125 16.8751V16.8751Z" stroke="black" stroke-linecap="round" stroke-linejoin="round"/>
<path d="M10.3125 10.625C10.6577 10.625 10.9375 10.3452 10.9375 10C10.9375 9.65482 10.6577 9.375 10.3125 9.375C9.96732 9.375 9.6875 9.65482 9.6875 10C9.6875 10.3452 9.96732 10.625 10.3125 10.625Z" fill="black"/>
<path d="M6.5625 10.625C6.90768 10.625 7.1875 10.3452 7.1875 10C7.1875 9.65482 6.90768 9.375 6.5625 9.375C6.21732 9.375 5.9375 9.65482 5.9375 10C5.9375 10.3452 6.21732 10.625 6.5625 10.625Z" fill="black"/>
<path d="M14.0625 10.625C14.4077 10.625 14.6875 10.3452 14.6875 10C14.6875 9.65482 14.4077 9.375 14.0625 9.375C13.7173 9.375 13.4375 9.65482 13.4375 10C13.4375 10.3452 13.7173 10.625 14.0625 10.625Z" fill="black"/>
</svg>
