<svg width="20" height="20" viewBox="0 0 20 20" fill="none" xmlns="http://www.w3.org/2000/svg">
<path d="M18.5219 4.65627C19.0138 5.80497 19.1343 7.07877 18.8663 8.29933C18.5983 9.51989 17.9554 10.6261 17.0275 11.4631C16.0996 12.3001 14.9331 12.8259 13.6915 12.967C12.4499 13.1081 11.1952 12.8574 10.1031 12.25V12.25L4.84375 18.3438C4.42106 18.7665 3.84777 19.0039 3.25 19.0039C2.65222 19.0039 2.07894 18.7665 1.65625 18.3438C1.23356 17.9211 0.996094 17.3478 0.996094 16.75C0.996094 16.1522 1.23356 15.579 1.65625 15.1563L7.75 9.89689C7.14258 8.80482 6.89188 7.55014 7.03299 6.30851C7.1741 5.06688 7.69996 3.90046 8.53694 2.97254C9.37392 2.04463 10.4801 1.40168 11.7007 1.13371C12.9212 0.865747 14.195 0.986176 15.3437 1.47814L11.4062 5.40627L11.9406 8.05939L14.5937 8.59376L18.5219 4.65627Z" stroke="#828795" stroke-linecap="round" stroke-linejoin="round"/>
</svg>
